{"asset":{"generator":"glTF-Transform v3.5.1","version":"2.0","extras":{"author":"Элона (https://sketchfab.com/Elona_4956)","license":"CC-BY-4.0 (http://creativecommons.org/licenses/by/4.0/)","source":"https://sketchfab.com/3d-models/valorant-sage-91526d9dbd4a4a4a9aa1f016fdb65f14","title":"Valorant Sage"}},"accessors":[{"type":"VEC3","componentType":5126,"count":2048,"max":[0.11375058442354202,0.32906392216682434,-0.9855737686157227],"min":[-0.09484663605690002,-0.1466759443283081,-1.8966121673583984],"bufferView":0,"byteOffset":0},{"type":"VEC3","componentType":5126,"count":2048,"bufferView":0,"byteOffset":12},{"type":"VEC2","componentType":5126,"count":2048,"bufferView":0,"byteOffset":24},{"type":"VEC2","componentType":5126,"count":2048,"bufferView":0,"byteOffset":32},{"type":"VEC2","componentType":5126,"count":2048,"bufferView":0,"byteOffset":40},{"type":"VEC3","componentType":5126,"count":19378,"max":[0.37404680252075195,0.14567647874355316,0.008981939405202866],"min":[-0.3740466237068176,-0.20828072726726532,-1.855861783027649],"bufferView":1,"byteOffset":0},{"type":"VEC3","componentType":5126,"count":19378,"bufferView":1,"byteOffset":12},{"type":"VEC2","componentType":5126,"count":19378,"bufferView":1,"byteOffset":24},{"type":"VEC2","componentType":5126,"count":19378,"bufferView":1,"byteOffset":32},{"type":"VEC2","componentType":5126,"count":19378,"bufferView":1,"byteOffset":40},{"type":"VEC3","componentType":5126,"count":134,"max":[0.05016222596168518,-0.10052762925624847,-1.6844760179519653],"min":[-0.050161026418209076,-0.11423841863870621,-1.6995981931686401],"bufferView":2,"byteOffset":0},{"type":"VEC3","componentType":5126,"count":134,"bufferView":2,"byteOffset":12},{"type":"VEC2","componentType":5126,"count":134,"bufferView":2,"byteOffset":24},{"type":"VEC2","componentType":5126,"count":134,"bufferView":2,"byteOffset":32},{"type":"VEC2","componentType":5126,"count":134,"bufferView":2,"byteOffset":40},{"type":"VEC3","componentType":5126,"count":792,"max":[0.2889981269836426,0.1506660133600235,-0.8767359256744385],"min":[-0.0746624767780304,-0.21544621884822845,-1.6469495296478271],"bufferView":3,"byteOffset":0},{"type":"VEC3","componentType":5126,"count":792,"bufferView":3,"byteOffset":12},{"type":"VEC2","componentType":5126,"count":792,"bufferView":3,"byteOffset":24},{"type":"VEC2","componentType":5126,"count":792,"bufferView":3,"byteOffset":32},{"type":"VEC2","componentType":5126,"count":792,"bufferView":3,"byteOffset":40},{"type":"SCALAR","componentType":5125,"count":10410,"bufferView":4,"byteOffset":0},{"type":"SCALAR","componentType":5125,"count":95856,"bufferView":4,"byteOffset":41640},{"type":"SCALAR","componentType":5125,"count":396,"bufferView":4,"byteOffset":425064},{"type":"SCALAR","componentType":5125,"count":4320,"bufferView":4,"byteOffset":426648}],"bufferViews":[{"buffer":0,"byteOffset":0,"byteLength":98304,"byteStride":48,"target":34962},{"buffer":0,"byteOffset":98304,"byteLength":930144,"byteStride":48,"target":34962},{"buffer":0,"byteOffset":1028448,"byteLength":6432,"byteStride":48,"target":34962},{"buffer":0,"byteOffset":1034880,"byteLength":38016,"byteStride":48,"target":34962},{"buffer":0,"byteOffset":1072896,"byteLength":443928,"target":34963}],"samplers":[{"magFilter":9729,"minFilter":9987,"wrapS":10497,"wrapT":10497}],"textures":[{"source":0,"sampler":0},{"source":5,"sampler":0},{"source":1,"sampler":0},{"source":7,"sampler":0},{"source":2,"sampler":0},{"source":9,"sampler":0},{"source":3,"sampler":0},{"source":11,"sampler":0},{"source":4,"sampler":0},{"source":6,"sampler":0},{"source":8,"sampler":0},{"source":10,"sampler":0}],"images":[{"mimeType":"image/png","uri":"textures/material_diffuse.png"},{"mimeType":"image/png","uri":"textures/material_1_diffuse.png"},{"mimeType":"image/png","uri":"textures/material_2_diffuse.png"},{"mimeType":"image/png","uri":"textures/material_3_diffuse.png"},{"mimeType":"image/png","uri":"specular_1.png"},{"mimeType":"image/png","uri":"metallicRoughness_1.png"},{"mimeType":"image/png","uri":"specular_2.png"},{"mimeType":"image/png","uri":"metallicRoughness_2.png"},{"mimeType":"image/png","uri":"specular_3.png"},{"mimeType":"image/png","uri":"metallicRoughness_3.png"},{"mimeType":"image/png","uri":"specular_4.png"},{"mimeType":"image/png","uri":"metallicRoughness_4.png"}],"buffers":[{"uri":"scene.bin","byteLength":1516824}],"materials":[{"name":"material","doubleSided":true,"pbrMetallicRoughness":{"metallicFactor":0,"baseColorTexture":{"index":0},"metallicRoughnessTexture":{"index":1}},"extensions":{"KHR_materials_ior":{"ior":1000},"KHR_materials_specular":{"specularTexture":{"index":8},"specularColorTexture":{"index":8}}}},{"name":"material_1","doubleSided":true,"pbrMetallicRoughness":{"metallicFactor":0,"baseColorTexture":{"index":2},"metallicRoughnessTexture":{"index":3}},"extensions":{"KHR_materials_ior":{"ior":1000},"KHR_materials_specular":{"specularTexture":{"index":9},"specularColorTexture":{"index":9}}}},{"name":"material_2","alphaMode":"MASK","alphaCutoff":0.5,"doubleSided":true,"pbrMetallicRoughness":{"metallicFactor":0,"baseColorTexture":{"index":4},"metallicRoughnessTexture":{"index":5}},"extensions":{"KHR_materials_ior":{"ior":1000},"KHR_materials_specular":{"specularTexture":{"index":10},"specularColorTexture":{"index":10}}}},{"name":"material_3","doubleSided":true,"pbrMetallicRoughness":{"metallicFactor":0,"baseColorTexture":{"index":6},"metallicRoughnessTexture":{"index":7}},"extensions":{"KHR_materials_ior":{"ior":1000},"KHR_materials_specular":{"specularTexture":{"index":11},"specularColorTexture":{"index":11}}}}],"meshes":[{"name":"Object_0","primitives":[{"attributes":{"NORMAL":1,"POSITION":0,"TEXCOORD_0":2,"TEXCOORD_1":3,"TEXCOORD_2":4},"mode":4,"material":0,"indices":20}]},{"name":"Object_1","primitives":[{"attributes":{"NORMAL":6,"POSITION":5,"TEXCOORD_0":7,"TEXCOORD_1":8,"TEXCOORD_2":9},"mode":4,"material":1,"indices":21}]},{"name":"Object_2","primitives":[{"attributes":{"NORMAL":11,"POSITION":10,"TEXCOORD_0":12,"TEXCOORD_1":13,"TEXCOORD_2":14},"mode":4,"material":2,"indices":22}]},{"name":"Object_3","primitives":[{"attributes":{"NORMAL":16,"POSITION":15,"TEXCOORD_0":17,"TEXCOORD_1":18,"TEXCOORD_2":19},"mode":4,"material":3,"indices":23}]}],"nodes":[{"name":"Sketchfab_model","rotation":[-0.7071067811865475,0,0,0.7071067811865476],"children":[1]},{"name":"root","children":[2]},{"name":"GLTF_SceneRootNode","rotation":[0.7071067811865475,0,0,0.7071067811865476],"children":[3]},{"name":"root_8","children":[4]},{"name":"node_id106_11","translation":[0.14617657661437988,0.3969573676586151,0.8628893494606018],"rotation":[0,1,0,4.656612873077393e-10],"scale":[0.002726395148783922,0.002726395148783922,0.002726395148783922],"children":[5]},{"name":"node_id100_102","translation":[4.755486488342285,-253.5867156982422,261.1363525390625],"rotation":[0.70710693019814,0,0,0.7071066321749236],"scale":[268.6826171875,268.6826171875,268.6826171875],"children":[6]},{"name":"node_id101_103","children":[7,9,11,13]},{"name":"_0","children":[8]},{"name":"Object_8","mesh":0},{"name":"_1","children":[10]},{"name":"Object_10","mesh":1},{"name":"_2","children":[12]},{"name":"Object_12","mesh":2},{"name":"_3","children":[14]},{"name":"Object_14","mesh":3}],"scenes":[{"name":"Sketchfab_Scene","nodes":[0]}],"scene":0,"extensionsUsed":["KHR_materials_ior","KHR_materials_specular"]}