{"asset":{"generator":"glTF-Transform v3.5.1","version":"2.0","extras":{"author":"Yung Samzy (https://sketchfab.com/SSLeaker)","license":"CC-BY-4.0 (http://creativecommons.org/licenses/by/4.0/)","source":"https://sketchfab.com/3d-models/reyna-valorant-293cbb17eb9249cea1f2f1887a6d9bf1","title":"Reyna (Valorant)"}},"accessors":[{"type":"VEC3","componentType":5126,"count":114,"max":[12.535914421081543,5.649010181427002,195.60836791992188],"min":[10.998180389404297,-5.649012088775635,194.06300354003906],"bufferView":0,"byteOffset":0},{"type":"VEC3","componentType":5126,"count":114,"bufferView":0,"byteOffset":12},{"type":"VEC2","componentType":5126,"count":114,"bufferView":0,"byteOffset":24},{"type":"VEC3","componentType":5126,"count":1004,"max":[13.037229537963867,11.913301467895508,209.1217041015625],"min":[-17.525421142578125,-11.753583908081055,159.89588928222656],"bufferView":1,"byteOffset":0},{"type":"VEC3","componentType":5126,"count":1004,"bufferView":1,"byteOffset":12},{"type":"VEC2","componentType":5126,"count":1004,"bufferView":1,"byteOffset":24},{"type":"VEC3","componentType":5126,"count":61,"max":[17.472412109375,8.941707611083984,174.16856384277344],"min":[4.823896884918213,-8.941707611083984,143.018798828125],"bufferView":2,"byteOffset":0},{"type":"VEC3","componentType":5126,"count":61,"bufferView":2,"byteOffset":12},{"type":"VEC2","componentType":5126,"count":61,"bufferView":2,"byteOffset":24},{"type":"VEC3","componentType":5126,"count":13125,"max":[27.249576568603516,43.02760696411133,207.38536071777344],"min":[-15.343833923339844,-43.20064926147461,-0.3369790017604828],"bufferView":3,"byteOffset":0},{"type":"VEC3","componentType":5126,"count":13125,"bufferView":3,"byteOffset":12},{"type":"VEC2","componentType":5126,"count":13125,"bufferView":3,"byteOffset":24},{"type":"SCALAR","componentType":5125,"count":336,"bufferView":4,"byteOffset":0},{"type":"SCALAR","componentType":5125,"count":5259,"bufferView":4,"byteOffset":1344},{"type":"SCALAR","componentType":5125,"count":276,"bufferView":4,"byteOffset":22380},{"type":"SCALAR","componentType":5125,"count":59181,"bufferView":4,"byteOffset":23484}],"bufferViews":[{"buffer":0,"byteOffset":0,"byteLength":3648,"byteStride":32,"target":34962},{"buffer":0,"byteOffset":3648,"byteLength":32128,"byteStride":32,"target":34962},{"buffer":0,"byteOffset":35776,"byteLength":1952,"byteStride":32,"target":34962},{"buffer":0,"byteOffset":37728,"byteLength":420000,"byteStride":32,"target":34962},{"buffer":0,"byteOffset":457728,"byteLength":260208,"target":34963}],"samplers":[{"magFilter":9729,"minFilter":9987,"wrapS":10497,"wrapT":10497}],"textures":[{"source":0,"sampler":0},{"source":1,"sampler":0},{"source":2,"sampler":0},{"source":3,"sampler":0}],"images":[{"mimeType":"image/png","uri":"textures/TP_Core_Eye_MI_baseColor.png"},{"mimeType":"image/png","uri":"textures/TP_Vampire_S0_Hair_MI_baseColor.png"},{"mimeType":"image/png","uri":"textures/TP_Vampire_S0_Heart_MI_baseColor.png"},{"mimeType":"image/png","uri":"textures/TP_Vampire_S0_MI_baseColor.png"}],"buffers":[{"uri":"scene.bin","byteLength":717936}],"materials":[{"name":"TP_Core_Eye_MI","doubleSided":true,"pbrMetallicRoughness":{"roughnessFactor":0.6,"metallicFactor":0,"baseColorTexture":{"index":0}}},{"name":"TP_Vampire_S0_Hair_MI","doubleSided":true,"pbrMetallicRoughness":{"roughnessFactor":0.4,"metallicFactor":0,"baseColorTexture":{"index":1}}},{"name":"TP_Vampire_S0_Heart_MI","doubleSided":true,"pbrMetallicRoughness":{"roughnessFactor":0.4,"metallicFactor":0,"baseColorTexture":{"index":2}}},{"name":"TP_Vampire_S0_MI","doubleSided":true,"pbrMetallicRoughness":{"roughnessFactor":0.4,"metallicFactor":0,"baseColorTexture":{"index":3}}}],"meshes":[{"name":"Object_0","primitives":[{"attributes":{"NORMAL":1,"POSITION":0,"TEXCOORD_0":2},"mode":4,"material":0,"indices":12}]},{"name":"Object_1","primitives":[{"attributes":{"NORMAL":4,"POSITION":3,"TEXCOORD_0":5},"mode":4,"material":1,"indices":13}]},{"name":"Object_2","primitives":[{"attributes":{"NORMAL":7,"POSITION":6,"TEXCOORD_0":8},"mode":4,"material":2,"indices":14}]},{"name":"Object_3","primitives":[{"attributes":{"NORMAL":10,"POSITION":9,"TEXCOORD_0":11},"mode":4,"material":3,"indices":15}]}],"nodes":[{"name":"Sketchfab_model","rotation":[-0.7071067811865475,0,0,0.7071067811865476],"scale":[0.008227781392633915,0.008227781392633915,0.008227781392633915],"children":[1]},{"name":"ReynaNoTextures.obj.cleaner.materialmerger.gles","children":[2,3,4,5]},{"name":"Object_2","mesh":0},{"name":"Object_3","mesh":1},{"name":"Object_4","mesh":2},{"name":"Object_5","mesh":3}],"scenes":[{"name":"Sketchfab_Scene","nodes":[0]}],"scene":0}